<?xml version="1.0" encoding="UTF-8" standalone="no"?>
<svg
   xmlns:dc="http://purl.org/dc/elements/1.1/"
   xmlns:cc="http://creativecommons.org/ns#"
   xmlns:rdf="http://www.w3.org/1999/02/22-rdf-syntax-ns#"
   xmlns:svg="http://www.w3.org/2000/svg"
   xmlns="http://www.w3.org/2000/svg"
   xmlns:sodipodi="http://sodipodi.sourceforge.net/DTD/sodipodi-0.dtd"
   xmlns:inkscape="http://www.inkscape.org/namespaces/inkscape"
   version="1.1"
   id="Layer_2"
   x="0px"
   y="0px"
   width="195.1102"
   height="13.340803"
   viewBox="0 0 103.019 6.7837984"
   enable-background="new 0 0 126.721 20.34"
   xml:space="preserve"
   sodipodi:docname="FirePowerTextWhite.svg"
   inkscape:version="1.0 (4035a4fb49, 2020-05-01)"
   inkscape:export-filename="C:\Users\Cameron Redmore\ownCloud\Pictures\FirePowerText.png"
   inkscape:export-xdpi="2497.05"
   inkscape:export-ydpi="2497.05"><metadata
     id="metadata75"><rdf:RDF><cc:Work
         rdf:about=""><dc:format>image/svg+xml</dc:format><dc:type
           rdf:resource="http://purl.org/dc/dcmitype/StillImage" /><dc:title></dc:title></cc:Work></rdf:RDF></metadata><defs
     id="defs73" /><sodipodi:namedview
     inkscape:document-rotation="0"
     pagecolor="#ffffff"
     bordercolor="#666666"
     borderopacity="1"
     objecttolerance="10"
     gridtolerance="10"
     guidetolerance="10"
     inkscape:pageopacity="0"
     inkscape:pageshadow="2"
     inkscape:window-width="3840"
     inkscape:window-height="2066"
     id="namedview71"
     showgrid="false"
     inkscape:zoom="11.725"
     inkscape:cx="63.720681"
     inkscape:cy="-5.7209678"
     inkscape:window-x="-11"
     inkscape:window-y="-11"
     inkscape:window-maximized="1"
     inkscape:current-layer="g68" /><g
     id="g68"
     transform="translate(-23.702,-7.2481007)"><g
       id="g66"><g
         id="g12"><polygon
           fill="#808080"
           points="28.146,10.375 24.588,10.375 24.588,8.039 28.536,8.039 28.536,7.152 23.702,7.152 23.702,14.041 24.588,14.041 24.588,11.262 28.146,11.262 "
           id="polygon10" /></g><g
         id="g16"><rect
           x="29.973"
           y="7.1789999"
           fill="#808080"
           width="0.88599998"
           height="6.862"
           id="rect14" /></g><g
         id="g20"><path
           fill="#808080"
           d="M 50.144,14.041 H 49.257 V 7.152 h 2.498 c 2.198,0 2.98,1.253 2.98,2.426 0,0.721 -0.293,2.395 -3.008,2.395 h -1.585 z m 0,-2.953 h 1.585 c 1.408,0 2.122,-0.508 2.122,-1.51 0,-0.993 -0.744,-1.539 -2.096,-1.539 h -1.611 z"
           id="path18" /></g><g
         id="g24"><path
           fill="#808080"
           d="m 38.461,9.578 c 0,-1.173 -0.783,-2.426 -2.981,-2.426 h -2.498 v 6.889 h 0.888 v -2.068 h 1.584 c 0.254,0 0.484,-0.014 0.697,-0.041 l 1.343,2.109 h 1.056 l -1.491,-2.336 c 1.236,-0.504 1.402,-1.585 1.402,-2.127 z m -4.593,1.51 V 8.039 h 1.61 c 1.352,0 2.096,0.546 2.096,1.539 0,1.002 -0.715,1.51 -2.122,1.51 z"
           id="path22" /></g><g
         id="g28"><polygon
           fill="#808080"
           points="40.999,10.133 40.999,8.039 44.947,8.039 44.947,7.152 40.112,7.152 40.112,14.041 40.555,14.041 40.999,14.041 45.054,14.041 45.054,13.154 40.999,13.154 40.999,11.02 44.557,11.02 44.557,10.133 "
           id="polygon26" /></g><g
         id="g32"><path
           fill="#808080"
           d="m 59.406,14.061 c -2.001,0 -3.63,-1.551 -3.63,-3.458 0,-1.906 1.629,-3.458 3.63,-3.458 2.003,0 3.632,1.552 3.632,3.458 -10e-4,1.907 -1.63,3.458 -3.632,3.458 z m 0,-6.029 c -1.513,0 -2.742,1.153 -2.742,2.571 0,1.418 1.229,2.573 2.742,2.573 1.514,0 2.744,-1.154 2.744,-2.573 0,-1.418 -1.231,-2.571 -2.744,-2.571 z"
           id="path30" /></g><g
         id="g36"><path
           fill="#808080"
           d="m 107.349,14.035 c -2.002,0 -3.631,-1.551 -3.631,-3.458 0,-1.907 1.629,-3.458 3.631,-3.458 2.001,0 3.63,1.551 3.63,3.458 0,1.907 -1.629,3.458 -3.63,3.458 z m 0,-6.031 c -1.514,0 -2.744,1.154 -2.744,2.572 0,1.417 1.23,2.572 2.744,2.572 1.513,0 2.743,-1.154 2.743,-2.572 0.001,-1.417 -1.23,-2.572 -2.743,-2.572 z"
           id="path34" /></g><g
         id="g40"><path
           fill="#808080"
           d="m 87.304,9.558 c 0,-1.173 -0.783,-2.427 -2.981,-2.427 h -2.497 v 6.891 h 0.887 v -2.068 h 1.584 c 0.254,0 0.484,-0.016 0.698,-0.041 l 1.342,2.109 h 1.056 L 85.9,11.684 c 1.238,-0.502 1.404,-1.584 1.404,-2.126 z m -4.592,1.508 V 8.018 h 1.61 c 1.352,0 2.096,0.547 2.096,1.54 0,1.001 -0.714,1.508 -2.122,1.508 z"
           id="path38" /></g><g
         id="g44"><polygon
           fill="#808080"
           points="76.144,10.113 76.144,8.018 80.093,8.018 80.093,7.131 75.258,7.131 75.258,14.021 75.701,14.021 76.144,14.021 80.2,14.021 80.2,13.135 76.144,13.135 76.144,11 79.703,11 79.703,10.113 "
           id="polygon42" /></g><g
         id="g48"><path
           fill="#808080"
           d="m 94.628,13.148 c -1.514,0 -2.744,-1.154 -2.744,-2.572 0,-1.418 1.23,-2.572 2.744,-2.572 0.769,0 1.464,0.299 1.963,0.778 L 97.216,8.153 C 96.557,7.514 95.641,7.118 94.628,7.118 c -2.002,0 -3.63,1.551 -3.63,3.458 0,1.908 1.628,3.458 3.63,3.458 1.006,0 1.917,-0.394 2.575,-1.023 l -0.61,-0.643 c -0.499,0.48 -1.195,0.78 -1.965,0.78 z"
           id="path46" /></g><g
         id="g52"><polygon
           fill="#808080"
           points="99.525,13.148 103.286,13.148 103.286,14.035 98.638,14.035 98.638,7.179 99.525,7.179 "
           id="polygon50" /></g><g
         id="g56"><path
           fill="#808080"
           d="m 115.453,14.162 c -1.867,0 -2.981,-1.195 -2.981,-3.195 V 7.179 h 0.887 v 3.788 c 0,1.51 0.725,2.309 2.096,2.309 0.462,0 1.865,0 1.865,-2.325 V 7.178 h 0.888 v 3.771 c -0.002,2.041 -1.006,3.213 -2.755,3.213 z"
           id="path54" /></g><g
         id="g60"><path
           fill="#808080"
           d="m 123.074,14.035 h -2.761 V 7.119 h 2.6 c 2.313,0 3.808,1.357 3.808,3.458 -0.001,2.552 -1.965,3.458 -3.647,3.458 z m -1.873,-0.887 h 1.873 c 0.461,0 2.76,-0.125 2.76,-2.572 0,-1.896 -1.509,-2.572 -2.921,-2.572 h -1.712 z"
           id="path58" /></g><g
         id="g64"><path
           fill="#808080"
           d="M 73.065,7.129 71.211,12.615 69.3,7.129 c -0.303,0 -0.607,0 -0.909,0 l -1.952,5.496 -1.853,-5.494 c -0.394,0 -0.716,0 -0.944,0 l 2.331,6.891 h 0.912 l 1.957,-5.514 1.919,5.514 h 0.91 l 2.34,-6.893 c -0.249,0 -0.57,0 -0.946,0 z"
           id="path62" /></g></g><path
       transform="matrix(0.52800418,0,0,0.52800418,23.702,7.118)"
       id="path39"
       d="M 0.0533036,6.5604821 V 0.07860575 H 4.5735595 9.0938153 V 0.88884029 1.6990748 H 5.383794 1.6737727 v 2.260128 2.2601279 h 3.3688699 3.36887 v 0.8102345 0.8102346 h -3.36887 -3.3688699 v 2.6012792 2.601279 H 0.86353814 0.0533036 Z"
       style="fill:#ffffff;stroke-width:0.0852878" /><path
       transform="matrix(0.52800418,0,0,0.52800418,23.702,7.118)"
       id="path41"
       d="M 11.908314,6.603126 V 0.1638936 h 0.810235 0.810234 v 6.4392324 6.439232 h -0.810234 -0.810235 z"
       style="fill:#ffffff;stroke-width:0.0852878" /><path
       transform="matrix(0.52800418,0,0,0.52800418,23.702,7.118)"
       id="path43"
       d="M 17.6226,6.5514947 V 0.06063103 l 2.963753,0.04313736 c 3.343737,0.048668 3.688802,0.0952774 4.866968,0.65740233 1.587233,0.75729808 2.439606,2.15081518 2.425654,3.96562268 -0.01254,1.6313805 -0.746201,2.9170897 -2.083665,3.6515393 -0.272129,0.1494355 -0.495235,0.3016351 -0.495792,0.338221 -5.54e-4,0.036585 0.611521,1.024858 1.360173,2.1961623 l 1.361184,2.129642 -0.956067,-0.0038 -0.956067,-0.0038 -1.236451,-1.957775 -1.236451,-1.9577745 h -2.196385 -2.196385 v 1.9616205 1.96162 H 18.432835 17.6226 Z m 6.434588,0.8194586 C 25.125843,7.0712782 25.726042,6.6158108 26.080508,5.8355354 26.235066,5.4953119 26.274746,5.2539078 26.276774,4.6415055 26.278991,3.9711147 26.249183,3.8125537 26.041356,3.3893432 25.762146,2.8207718 25.354369,2.4365618 24.723689,2.1478267 23.984398,1.8093682 23.138171,1.7053228 21.09808,1.7020504 l -1.855011,-0.00298 v 2.9534 2.9534 l 2.153518,-0.046362 c 1.63737,-0.03525 2.275054,-0.080444 2.660601,-0.1885597 z"
       style="fill:#ffffff;stroke-width:0.0852878" /><path
       transform="matrix(0.52800418,0,0,0.52800418,23.702,7.118)"
       id="path45"
       d="M 31.09808,6.5604821 V 0.07860575 h 4.5629 4.562899 V 0.88884029 1.6990748 h -3.752665 -3.752665 v 2.0469084 2.0469083 h 3.36887 3.36887 v 0.7675906 0.7675906 h -3.36887 -3.36887 v 2.0895522 2.0895521 h 3.837953 3.837953 v 0.767591 0.76759 H 35.746267 31.09808 Z"
       style="fill:#ffffff;stroke-width:0.0852878" /><path
       transform="matrix(0.52800418,0,0,0.52800418,23.702,7.118)"
       id="path47"
       d="M 48.411513,6.5515826 V 0.06080692 l 3.006396,0.03895301 c 2.736437,0.03545522 3.067664,0.05544516 3.6887,0.22261711 1.050953,0.28289846 1.7127,0.64545251 2.365692,1.29610236 0.931046,0.9277058 1.34516,2.0881637 1.230127,3.4471357 -0.133329,1.5750985 -0.941124,2.7687361 -2.316502,3.4229746 -1.113085,0.5294719 -1.383376,0.5707862 -3.987207,0.6094455 l -2.366737,0.035139 v 1.9545928 1.954591 h -0.810235 -0.810234 z m 5.714285,0.9441878 C 55.498095,7.3179219 56.371098,6.8447837 56.808236,6.0419811 57.131786,5.4477808 57.214724,4.3585304 56.98832,3.6768909 56.716658,2.8589913 55.9436,2.2120896 54.850745,1.8881476 54.541569,1.7965023 53.8204,1.7508174 52.228144,1.7220098 l -2.196162,-0.039733 v 2.9508299 2.9508299 l 1.727079,-0.00263 c 0.949893,-0.00145 2.014925,-0.039938 2.366737,-0.085533 z"
       style="fill:#ffffff;stroke-width:0.0852878" /><path
       transform="matrix(0.52800418,0,0,0.52800418,23.702,7.118)"
       id="path49"
       d="M 66.620468,13.040567 C 65.119051,12.812535 63.749402,12.115645 62.697227,11.044387 61.680825,10.009551 61.149736,9.0096659 60.889976,7.6418625 60.37336,4.9215484 61.986891,1.9662335 64.647347,0.75992486 65.689225,0.28751517 66.423056,0.13127995 67.601278,0.13102302 68.92034,0.1307356 69.560773,0.2772066 70.714284,0.84298749 73.052643,1.9899193 74.42667,4.1210976 74.423045,6.5954469 c -0.0015,1.0231817 -0.149035,1.7093472 -0.557732,2.5939179 -1.041267,2.2536852 -3.350462,3.7735782 -5.911982,3.8912132 -0.451625,0.02074 -1.051413,0.0027 -1.332863,-0.04001 z M 68.811054,11.37601 C 70.08444,11.108302 71.437602,10.184932 72.123942,9.115364 73.059015,7.6581792 73.078141,5.6097129 72.170119,4.1695924 71.252105,2.7136252 69.699773,1.8149107 67.94632,1.7242475 63.217645,1.4797489 60.590691,6.6974357 63.810716,9.9384318 65.09141,11.227466 66.960973,11.764958 68.811054,11.37601 Z"
       style="fill:#ffffff;stroke-width:0.0852878" /><path
       transform="matrix(0.52800418,0,0,0.52800418,23.702,7.118)"
       id="path51"
       d="m 77.909988,6.58161 -2.185959,-6.46036033 0.811025,-0.024543 c 0.446064,-0.01349865 0.828536,-0.0070328 0.849937,0.01436857 0.0214,0.0214014 0.649972,1.85547346 1.396823,4.07571566 1.683934,5.0060025 2.137351,6.3123791 2.177105,6.2726241 0.01712,-0.01712 0.819337,-2.2542597 1.782707,-4.9714252 0.963371,-2.7171655 1.793508,-5.0458446 1.844749,-5.17484247 0.09267,-0.23330428 0.09752,-0.23454158 0.919125,-0.23454158 h 0.825959 l 1.786295,5.12999645 c 0.982463,2.821498 1.821879,5.1265628 1.86537,5.1223658 0.04349,-0.0042 0.853203,-2.3030995 1.799363,-5.1086739 L 93.502775,0.12124967 94.358871,0.09705212 95.214968,0.07285458 94.251358,2.9115511 C 93.721374,4.4728342 92.73422,7.3813776 92.057685,9.374981 l -1.230064,3.624733 H 89.988961 89.1503 L 87.35909,7.8397998 C 86.373925,5.0018467 85.555246,2.6638936 85.539803,2.6443484 c -0.01544,-0.019545 -0.04853,-0.015082 -0.07353,0.00992 -0.025,0.025 -0.813043,2.209435 -1.751205,4.8542999 -0.938162,2.6448647 -1.767271,4.9719587 -1.842465,5.1713187 l -0.136716,0.362473 -0.819969,-1.93e-4 -0.819969,-1.95e-4 z"
       style="fill:#ffffff;stroke-width:0.0852878" /><path
       transform="matrix(0.52800418,0,0,0.52800418,23.702,7.118)"
       id="path53"
       d="M 97.707888,6.5604821 V 0.07860575 h 4.520252 4.52026 V 0.88884029 1.6990748 h -3.75267 -3.752661 v 2.0042644 2.0042644 h 3.368871 3.36887 v 0.8102346 0.8102345 h -3.36887 -3.368871 v 2.0469083 2.046908 h 3.880601 3.88059 v 0.810235 0.810234 h -4.64818 -4.648192 z"
       style="fill:#ffffff;stroke-width:0.0852878" /><path
       transform="matrix(0.52800418,0,0,0.52800418,23.702,7.118)"
       id="path57"
       d="M 110.15991,6.5604821 V 0.07860575 l 2.79318,0.0011204 c 3.21981,0.0012916 3.91868,0.09128305 5.05331,0.65070192 2.15248,1.06126403 3.00547,3.65155563 1.94393,5.90316153 -0.31285,0.6635966 -1.04435,1.4095321 -1.71496,1.7488346 -0.42515,0.2151035 -0.47069,0.2626191 -0.39222,0.40924 0.0488,0.091234 0.6476,1.0369885 1.33061,2.1016778 0.68301,1.064688 1.26038,1.983771 1.28304,2.042407 0.0314,0.08135 -0.17823,0.10611 -0.88478,0.1045 l -0.92597,-0.0021 -1.27195,-2.011051 -1.27195,-2.0110497 -0.30587,0.0506 c -0.16823,0.02783 -1.15982,0.051023 -2.20353,0.051539 l -1.89766,9.39e-4 v 1.9616207 1.96162 h -0.76759 -0.76759 z m 6.16006,0.813624 c 0.76442,-0.1619963 1.2488,-0.3857574 1.68172,-0.7768748 0.59109,-0.5340116 0.79713,-1.0781184 0.78678,-2.0776618 -0.0143,-1.3755598 -0.77752,-2.2670271 -2.26722,-2.6480289 -0.58611,-0.1499022 -0.94593,-0.1724658 -2.75025,-0.1724658 h -2.07591 v 2.8997868 2.8997868 l 2.02559,-0.00148 c 1.42323,-0.00104 2.19619,-0.037635 2.59929,-0.1230613 z"
       style="fill:#ffffff;stroke-width:0.0852878" /><path
       transform="matrix(0.52800418,0,0,0.52800418,23.702,7.118)"
       id="path59"
       d="m 133.27292,12.988596 c -0.74275,-0.14335 -1.58364,-0.43338 -2.25431,-0.777535 -1.01525,-0.520974 -2.23206,-1.703224 -2.72116,-2.6438693 -0.68175,-1.311162 -0.92013,-2.5050776 -0.7471,-3.7419043 0.31307,-2.2379354 1.65729,-4.072499 3.71168,-5.06561489 1.78953,-0.86508313 4.1125,-0.91706737 5.8882,-0.13176857 0.566,0.25031537 1.53745,0.87916616 1.81418,1.17438596 l 0.19042,0.2031449 -0.54183,0.5370093 -0.54182,0.5370094 -0.41619,-0.3200104 c -0.49721,-0.382308 -1.43128,-0.824373 -2.0793,-0.9840585 -0.63953,-0.1575939 -1.96134,-0.1338982 -2.64246,0.047371 -0.53629,0.1427224 -1.34419,0.5013923 -1.73096,0.7684628 -0.56529,0.3903482 -1.27148,1.2237193 -1.58903,1.8752145 -0.7012,1.4386217 -0.69865,2.7642344 0.008,4.2262456 0.33947,0.7022184 1.34993,1.7283735 2.07672,2.1089765 0.90348,0.473133 1.70766,0.642943 2.84536,0.600825 1.23606,-0.04576 1.91413,-0.260096 2.86454,-0.90548 l 0.68092,-0.462379 0.49179,0.534704 c 0.27049,0.294087 0.49179,0.567922 0.49179,0.608523 0,0.14113 -1.07025,0.868115 -1.7484,1.187622 -1.00342,0.47276 -1.56051,0.600243 -2.77185,0.634302 -0.58636,0.01649 -1.16205,0.01146 -1.27932,-0.01118 z"
       style="fill:#ffffff;stroke-width:0.0852878" /><path
       transform="matrix(0.52800418,0,0,0.52800418,23.702,7.118)"
       id="path61"
       d="M 141.97228,6.603126 V 0.1638936 h 0.81023 0.81024 v 5.6289979 5.6289975 h 3.53944 3.53945 v 0.810235 0.810234 h -4.34968 -4.34968 z"
       style="fill:#ffffff;stroke-width:0.0852878" /><path
       transform="matrix(0.52800418,0,0,0.52800418,23.702,7.118)"
       id="path63"
       d="m 157.02559,12.915672 c -1.19592,-0.264375 -2.18313,-0.734868 -3.06057,-1.458623 -0.75395,-0.621887 -1.26859,-1.281578 -1.72409,-2.2099998 -0.50043,-1.0199911 -0.65704,-1.7871038 -0.60943,-2.9850746 0.0656,-1.6504241 0.65655,-2.9581562 1.89119,-4.1850797 1.44251,-1.4334836 3.06256,-2.0523218 5.16601,-1.97334441 1.25774,0.0472242 1.82032,0.18429891 2.85714,0.69615482 4.62551,2.28352199 4.96737,8.45540449 0.61847,11.16595069 -1.49873,0.934117 -3.52016,1.307827 -5.13872,0.950016 z m 2.73261,-1.622996 c 1.36331,-0.346548 2.71425,-1.3678579 3.31068,-2.5028634 1.42413,-2.710111 0.0801,-5.8621814 -2.93029,-6.8720329 -0.61535,-0.2064246 -0.86678,-0.243989 -1.66311,-0.2484697 -1.5758,-0.00887 -2.78847,0.4719375 -3.8384,1.521861 -0.9902,0.9902091 -1.43093,2.0433457 -1.42605,3.4076624 0.008,2.2438662 1.65406,4.1968056 3.98513,4.7281586 0.55784,0.127156 2.00296,0.1078 2.56204,-0.03432 z"
       style="fill:#ffffff;stroke-width:0.0852878" /><path
       transform="matrix(0.52800418,0,0,0.52800418,23.702,7.118)"
       id="path65"
       d="m 172.42004,13.170573 c -2.04153,-0.411056 -3.4434,-1.75294 -4.0276,-3.8552525 -0.17592,-0.6330926 -0.1864,-0.8706126 -0.21653,-4.9083565 l -0.0316,-4.2430704 h 0.81152 0.81153 l 0.0275,4.2430704 c 0.0264,4.0619643 0.0353,4.2658157 0.20863,4.7759607 0.37269,1.0966573 1.06884,1.8595613 2.05392,2.2508823 0.427,0.169623 0.64554,0.195299 1.68614,0.198093 1.18268,0.0032 1.20171,1.7e-4 1.76669,-0.277826 0.62339,-0.306751 0.97687,-0.670226 1.3026,-1.339434 0.48659,-0.9996777 0.49664,-1.1061682 0.53301,-5.65032 l 0.0336,-4.2004264 h 0.80388 0.80388 l -0.002,3.3901919 c -0.003,4.920454 -0.1196,5.9489458 -0.82883,7.2986025 -0.99223,1.888221 -3.27974,2.812525 -5.7364,2.317885 z"
       style="fill:#ffffff;stroke-width:0.0852878" /><path
       transform="matrix(0.52800418,0,0,0.52800418,23.702,7.118)"
       id="path67"
       d="M 182.99573,6.5666838 V 0.07860575 l 2.96376,6.4392e-4 c 3.1972,6.951e-4 3.66028,0.04230783 4.84008,0.43493031 2.95647,0.98387492 4.51504,3.52790892 4.20794,6.86859702 -0.14427,1.5694705 -0.65036,2.66718 -1.72849,3.749143 -0.56403,0.566024 -0.83479,0.762645 -1.49864,1.088264 -1.49833,0.734938 -1.69908,0.764312 -5.47974,0.801803 l -3.30491,0.03278 z m 6.81343,4.6825232 c 2.46011,-0.589753 3.81051,-2.4542294 3.64304,-5.0298763 -0.14765,-2.2706512 -1.39389,-3.7440763 -3.68956,-4.3621383 -0.57465,-0.1547116 -0.98407,-0.1859336 -2.90763,-0.2217316 l -2.23881,-0.041665 v 4.9140467 4.9140465 l 2.23881,-5.97e-4 c 1.94738,-5.11e-4 2.33192,-0.02292 2.95415,-0.172085 z"
       style="fill:#ffffff;stroke-width:0.0852878" /></g></svg>
