<?xml version="1.0" encoding="UTF-8" standalone="no"?>
<svg
   xmlns:dc="http://purl.org/dc/elements/1.1/"
   xmlns:cc="http://creativecommons.org/ns#"
   xmlns:rdf="http://www.w3.org/1999/02/22-rdf-syntax-ns#"
   xmlns:svg="http://www.w3.org/2000/svg"
   xmlns="http://www.w3.org/2000/svg"
   xmlns:sodipodi="http://sodipodi.sourceforge.net/DTD/sodipodi-0.dtd"
   xmlns:inkscape="http://www.inkscape.org/namespaces/inkscape"
   version="1.1"
   id="Layer_2"
   x="0px"
   y="0px"
   width="37.634174"
   height="38.522423"
   viewBox="0 0 19.871001 19.588652"
   enable-background="new 0 0 126.721 20.34"
   xml:space="preserve"
   sodipodi:docname="FirePowerLogoWhite.svg"
   inkscape:version="1.0 (4035a4fb49, 2020-05-01)"
   inkscape:export-filename="C:\Users\Cameron Redmore\ownCloud\Pictures\FirePowerLogo.png"
   inkscape:export-xdpi="2611.6738"
   inkscape:export-ydpi="2611.6738"><metadata
     id="metadata75"><rdf:RDF><cc:Work
         rdf:about=""><dc:format>image/svg+xml</dc:format><dc:type
           rdf:resource="http://purl.org/dc/dcmitype/StillImage" /><dc:title></dc:title></cc:Work></rdf:RDF></metadata><defs
     id="defs73" /><sodipodi:namedview
     inkscape:document-rotation="0"
     pagecolor="#ffffff"
     bordercolor="#666666"
     borderopacity="1"
     objecttolerance="10"
     gridtolerance="10"
     guidetolerance="10"
     inkscape:pageopacity="0"
     inkscape:pageshadow="2"
     inkscape:window-width="3840"
     inkscape:window-height="2066"
     id="namedview71"
     showgrid="false"
     inkscape:zoom="16.942329"
     inkscape:cx="1.1946671"
     inkscape:cy="28.951559"
     inkscape:window-x="-11"
     inkscape:window-y="-11"
     inkscape:window-maximized="1"
     inkscape:current-layer="g68" /><g
     id="g68"
     transform="translate(0,-0.39008333)"><g
       id="g8"><path
         fill="#808080"
         d="m 12.495,0.77 c -0.041,0.3 -0.056,0.732 0.077,1.11 0.013,0.033 0.025,0.066 0.038,0.1 3.552,1.138 6.131,4.476 6.131,8.407 0,4.866 -3.951,8.825 -8.808,8.825 -4.855,0 -8.807,-3.959 -8.807,-8.825 0,-4.314 3.105,-7.914 7.193,-8.675 C 8.453,1.257 8.635,0.85 8.836,0.495 8.822,0.496 8.808,0.497 8.794,0.498 3.851,1.066 0,5.284 0,10.386 c 0,5.489 4.457,9.954 9.935,9.954 5.479,0 9.936,-4.465 9.936,-9.954 C 19.869,5.785 16.735,1.904 12.495,0.77 Z"
         id="path2" /><path
         fill="#808080"
         d="m 12.017,9.912 c 0,0 1.209,-0.997 1.209,-2.8 0,-1.38 -1.466,-3.039 -2.063,-4.734 C 10.747,1.204 11.132,0 11.132,0 c 0,0 -1.522,1.25 -1.522,3.173 0,1.471 1.465,3.276 2.166,4.854 0.435,0.978 0.241,1.885 0.241,1.885 z"
         id="path4" /><path
         fill="#808080"
         d="m 10.537,11.324 c 0.304,-0.533 0.514,-1.078 0.514,-1.661 0,-1.209 -0.551,-2.042 -0.551,-2.042 0,0 0.014,1.276 -0.712,2.404 C 9.72,10.131 9.646,10.236 9.57,10.338 8.31,8.822 7.652,7.819 7.652,6.317 c 0,-1.518 1.114,-3.371 1.114,-3.371 0,0 -2.43,2.057 -2.43,4.367 0,1.94 1.036,3.328 2.033,4.441 -0.698,0.811 -1.309,1.676 -1.309,2.893 0,2.687 2.404,3.72 2.404,3.72 0,0 -1.142,-1.103 -1.142,-2.687 0,-1.022 0.534,-1.908 1.132,-2.76 1.024,1.072 2.145,2.248 2.145,3.283 0,1.219 -1.383,2.002 -1.383,2.002 0,0 2.552,-0.592 2.552,-3.225 0.002,-1.832 -1.126,-2.658 -2.231,-3.656 z"
         id="path6" /></g><g
       id="g66" /><path
       transform="matrix(0.52800417,0,0,0.52800417,0,0.01440939)"
       id="path14"
       d="M 17.337666,38.416956 C 11.854938,37.911098 7.0541414,35.252245 3.7997395,30.919168 1.3266121,27.62632 0.0439496,23.766753 0.04375305,19.617302 0.04361051,16.608124 0.71134057,13.830507 2.0849432,11.126383 4.5371116,6.2989533 8.9693746,2.7387064 14.173317,1.4163103 15.154788,1.1669047 16.536571,0.92083353 16.599913,0.98417638 16.61715,1.0014131 16.50183,1.2856113 16.343647,1.6157281 16.185463,1.9458449 15.981634,2.4350882 15.890692,2.7029354 l -0.165347,0.486995 -0.625166,0.1364344 C 11.913728,4.0217671 8.6761286,5.9127181 6.4754205,8.3637387 4.44891,10.620748 3.099583,13.24388 2.4722027,16.146113 2.0484939,18.10617 2.0025293,20.498346 2.3501146,22.500033 3.4886449,29.056639 8.4160699,34.332652 14.87631,35.912385 c 1.396784,0.341558 2.267116,0.438495 3.93695,0.438495 1.669835,0 2.540167,-0.09694 3.936951,-0.438495 4.467175,-1.092366 8.26896,-3.961921 10.583194,-7.988106 1.779171,-3.095311 2.519864,-6.916138 2.037343,-10.509534 C 34.712034,12.509212 31.926994,8.1677314 27.718322,5.485704 26.919063,4.9763663 25.386296,4.2209733 24.568077,3.9331704 L 23.918816,3.7047969 23.806385,3.3872179 c -0.150406,-0.4248428 -0.214039,-1.8817088 -0.08219,-1.8817088 0.127032,0 0.64587,0.1577771 1.404608,0.4271368 5.997639,2.1292229 10.614862,7.3538473 12.010296,13.5902661 0.347611,1.553529 0.407681,2.153695 0.410657,4.102893 0.0029,1.924257 -0.04187,2.41625 -0.35583,3.907238 -0.598553,2.842504 -1.930544,5.633638 -3.797399,7.957296 -0.627129,0.780584 -2.037022,2.189139 -2.806975,2.804314 -2.262078,1.807349 -4.925031,3.094184 -7.689778,3.715976 -1.332448,0.299668 -2.191582,0.393157 -3.791395,0.412569 -0.827808,0.01004 -1.624629,0.0072 -1.770713,-0.0062 z"
       style="fill:#ffffff;stroke-width:0.0590238" /><path
       transform="matrix(0.52800417,0,0,0.52800417,0,0.01440939)"
       id="path16"
       d="m 17.306722,34.386589 c -1.504661,-0.920506 -2.723145,-2.296058 -3.334288,-3.764089 -0.445985,-1.071305 -0.656394,-2.458549 -0.53565,-3.531592 0.178727,-1.588338 0.768318,-2.782739 2.33063,-4.721425 l 0.111924,-0.138887 -0.56098,-0.667891 c -1.764511,-2.100787 -2.675859,-3.815081 -3.097454,-5.826475 -0.133664,-0.637697 -0.156119,-0.891125 -0.157428,-1.776707 -0.0011,-0.767815 0.02441,-1.14653 0.09952,-1.475594 0.458066,-2.006674 1.711048,-4.1235034 3.572458,-6.0354279 0.33989,-0.3491146 0.624379,-0.6280019 0.632198,-0.6197496 0.0078,0.00825 -0.155406,0.3578103 -0.362721,0.7767954 -0.683579,1.3815176 -1.176445,2.7833087 -1.421959,4.0442871 -0.134385,0.690207 -0.130033,2.03339 0.009,2.778475 0.251539,1.347992 0.82584,2.582096 1.908969,4.102152 0.474139,0.665403 1.560187,2.031796 1.616986,2.034384 0.0706,0.0032 0.604992,-0.823698 0.857285,-1.326568 0.45274,-0.9024 0.802156,-2.12902 0.878941,-3.085515 0.02159,-0.268917 0.05801,-0.500531 0.08093,-0.514699 0.0607,-0.03752 0.438674,0.806995 0.613358,1.370429 0.256959,0.828809 0.349243,1.534276 0.314209,2.401989 -0.03785,0.937402 -0.155885,1.389009 -0.610767,2.336775 l -0.32578,0.678773 0.520759,0.470451 c 1.026852,0.927652 1.984094,1.899138 2.357128,2.392202 0.476817,0.630241 0.918945,1.516238 1.119246,2.242903 0.208979,0.758145 0.266464,2.238617 0.117631,3.029477 -0.361834,1.922687 -1.567574,3.440761 -3.480182,4.381688 -0.713646,0.351086 -0.951961,0.411961 -0.62598,0.159901 0.713448,-0.551662 1.41441,-1.370428 1.718198,-2.006959 0.882193,-1.848469 0.06911,-3.693315 -3.087779,-7.006016 l -0.670994,-0.704112 -0.460651,0.694648 c -1.443081,2.176123 -1.915875,3.856052 -1.598095,5.678338 0.214737,1.231393 0.906873,2.704867 1.688985,3.595643 0.100729,0.114724 0.172968,0.217889 0.160532,0.229258 -0.01244,0.01137 -0.18262,-0.07722 -0.378186,-0.196862 z"
       style="fill:#ffffff;stroke-width:0.0590238" /><path
       transform="matrix(0.52800417,0,0,0.52800417,0,0.01440939)"
       id="path18"
       d="m 22.848122,17.790034 c -0.009,-1.669807 -0.317092,-2.489546 -2.11631,-5.630736 C 19.257844,9.5859497 18.68008,8.362589 18.390272,7.2013023 18.218644,6.5135781 18.208077,5.3791811 18.366354,4.6337686 18.654163,3.2783246 19.35789,1.9014198 20.333316,0.78523478 20.728747,0.33274111 21.043922,0.05896332 20.98118,0.22246454 20.849851,0.56470392 20.748732,1.7074951 20.778867,2.5089131 c 0.06169,1.6407595 0.459488,2.6733995 2.28508,5.9318882 1.519594,2.7123147 1.947147,3.8299327 1.946571,5.0883107 -7.73e-4,1.68904 -0.70367,3.487188 -1.873863,4.7937 l -0.283956,0.317034 -0.0046,-0.849812 z"
       style="fill:#ffffff;stroke-width:0.0590238" /></g></svg>
